<svg width="24px" height="24px" viewBox="0 0 0.48 0.48" version="1.1" xmlns="http://www.w3.org/2000/svg" xmlns:xlink="http://www.w3.org/1999/xlink">
    <path fill="#444" d="M0.447 0.033c-0.042 -0.042 -0.111 -0.042 -0.153 0L0.162 0.162C0.12 0.207 0.12 0.273 0.162 0.318c0.003 0.003 0.009 0.006 0.012 0.009l0.045 -0.045c-0.003 -0.003 -0.009 -0.006 -0.012 -0.009 -0.018 -0.018 -0.018 -0.048 0 -0.066l0.132 -0.132c0.018 -0.018 0.048 -0.018 0.066 0s0.018 0.048 0 0.066L0.366 0.18c0.012 0.024 0.015 0.051 0.012 0.075l0.069 -0.069c0.045 -0.042 0.045 -0.111 0 -0.153"/>
    <path fill="#444" d="M0.306 0.153 0.261 0.198s0.009 0.006 0.012 0.009c0.018 0.018 0.018 0.048 0 0.066l-0.132 0.132c-0.018 0.018 -0.048 0.018 -0.066 0s-0.018 -0.048 0 -0.066L0.114 0.3c-0.012 -0.024 -0.003 -0.039 -0.012 -0.075L0.033 0.294c-0.042 0.042 -0.042 0.111 0 0.153s0.111 0.042 0.153 0l0.132 -0.132c0.042 -0.042 0.042 -0.111 0 -0.153 -0.006 -0.003 -0.012 -0.009 -0.012 -0.009"/>
</svg>