<svg width="24px" height="24px" viewBox="0 0 0.48 0.48" xmlns="http://www.w3.org/2000/svg">
    <path fill-rule="evenodd" clip-rule="evenodd" d="M0.09 0.03a0.06 0.06 0 0 0 -0.06 0.06v0.3a0.06 0.06 0 0 0 0.06 0.06h0.3a0.06 0.06 0 0 0 0.06 -0.06V0.09a0.06 0.06 0 0 0 -0.06 -0.06zm0.033 0.129a0.036 0.036 0 1 0 0 -0.072 0.036 0.036 0 0 0 0 0.072m0.03 0.225V0.187h-0.06v0.197zM0.193 0.187h0.06v0.026c0.009 -0.014 0.028 -0.033 0.064 -0.033 0.043 0 0.067 0.029 0.067 0.083 0 0.003 0 0.015 0 0.015v0.106h-0.06v-0.106c0 -0.015 -0.003 -0.043 -0.035 -0.043 -0.032 0 -0.035 0.036 -0.036 0.059v0.09h-0.06z" fill="#0077B5"/>
</svg>