<svg width="250" height="250" viewBox="0 0 250 250" fill="none" xmlns="http://www.w3.org/2000/svg">
<rect width="250" height="250" fill="#5865F2"/>
<g clip-path="url(#clip0_2072_18381)">
<path d="M171.522 82.4619C163.016 78.5592 153.896 75.684 144.359 74.0372C144.186 74.0054 144.012 74.0848 143.923 74.2437C142.75 76.33 141.451 79.0517 140.541 81.1909C130.284 79.6554 120.08 79.6554 110.033 81.1909C109.123 79.0041 107.776 76.33 106.598 74.2437C106.509 74.0901 106.335 74.0107 106.162 74.0372C96.6306 75.6787 87.5099 78.554 78.9993 82.4619C78.9256 82.4936 78.8624 82.5466 78.8205 82.6154C61.5205 108.461 56.7813 133.672 59.1062 158.57C59.1167 158.692 59.185 158.808 59.2797 158.882C70.6938 167.265 81.7503 172.353 92.6015 175.726C92.7751 175.779 92.9591 175.716 93.0697 175.573C95.6365 172.068 97.9246 168.372 99.8865 164.485C100.002 164.257 99.8917 163.987 99.6551 163.897C96.0258 162.52 92.5699 160.842 89.2456 158.935C88.9827 158.782 88.9616 158.406 89.2035 158.226C89.9031 157.702 90.6028 157.156 91.2708 156.605C91.3916 156.505 91.56 156.484 91.7021 156.547C113.541 166.518 137.185 166.518 158.766 156.547C158.908 156.478 159.077 156.5 159.203 156.6C159.871 157.151 160.571 157.702 161.275 158.226C161.517 158.406 161.502 158.782 161.239 158.935C157.914 160.879 154.458 162.52 150.824 163.892C150.587 163.982 150.482 164.257 150.598 164.485C152.602 168.366 154.89 172.062 157.409 175.568C157.515 175.716 157.704 175.779 157.877 175.726C168.781 172.353 179.838 167.265 191.252 158.882C191.352 158.808 191.415 158.697 191.425 158.575C194.208 129.79 186.765 104.787 171.695 82.6207C171.658 82.5466 171.595 82.4936 171.522 82.4619ZM103.148 143.41C96.5727 143.41 91.155 137.373 91.155 129.96C91.155 122.547 96.4676 116.51 103.148 116.51C109.88 116.51 115.246 122.6 115.14 129.96C115.14 137.373 109.828 143.41 103.148 143.41ZM147.489 143.41C140.914 143.41 135.496 137.373 135.496 129.96C135.496 122.547 140.809 116.51 147.489 116.51C154.222 116.51 159.587 122.6 159.482 129.96C159.482 137.373 154.222 143.41 147.489 143.41Z" fill="white"/>
</g>
<defs>
<clipPath id="clip0_2072_18381">
<rect width="133.445" height="103.373" fill="white" transform="translate(58.5547 73.2549)"/>
</clipPath>
</defs>
</svg>
