<?xml version="1.0" encoding="UTF-8"?>
<svg id="Layer_1" xmlns="http://www.w3.org/2000/svg" version="1.1" viewBox="0 0 800 800">
  <!-- Generator: Adobe Illustrator 29.0.1, SVG Export Plug-In . SVG Version: 2.1.0 Build 192)  -->
  <defs>
    <style>
      .st0 {
        fill: #d1d1d1;
      }
    </style>
  </defs>
  <path class="st0" d="M266.7,633.3c-55.2,0-100-44.8-100-100v-266.7c0-55.2,44.8-100,100-100s33.3-14.9,33.3-33.3-14.9-33.3-33.3-33.3c-92,0-166.7,74.6-166.7,166.7v266.7c0,92,74.6,166.7,166.7,166.7s33.3-14.9,33.3-33.3-14.9-33.3-33.3-33.3ZM523.7,523.7c13.1-13,13.2-34.1.2-47.1,0,0-.1-.1-.2-.2l-76.7-76.3,76.7-76.3c13.1-13.1,13.1-34.3,0-47.3-13.1-13.1-34.3-13.1-47.3,0l-76.3,76.7-76.3-76.7c-13.1-13.1-34.3-13.1-47.3,0s-13.1,34.3,0,47.3l76.7,76.3-76.7,76.3c-13.1,13-13.2,34.1-.2,47.1,0,0,.1.1.2.2,13,13.1,34.1,13.2,47.1.2,0,0,.1-.1.2-.2l76.3-76.7,76.3,76.7c13,13.1,34.1,13.2,47.1.2,0,0,.1-.1.2-.2ZM533.3,100c-18.4,0-33.3,14.9-33.3,33.3s14.9,33.3,33.3,33.3c55.2,0,100,44.8,100,100v266.7c0,55.2-44.8,100-100,100s-33.3,14.9-33.3,33.3,14.9,33.3,33.3,33.3c92,0,166.7-74.6,166.7-166.7v-266.7c0-92-74.6-166.7-166.7-166.7Z"/>
</svg>