<svg width="250" height="250" viewBox="0 0 250 250" fill="none" xmlns="http://www.w3.org/2000/svg">
<rect width="250" height="250" fill="#625DF5"/>
<path d="M187.999 118.235H151.282L183.081 99.8762L176.098 87.7775L144.299 106.136L162.654 74.3402L150.555 67.3528L132.2 99.149V62.4346H118.233V99.1525L99.8707 67.3528L87.7758 74.3366L106.134 106.133L74.3353 87.7775L67.3517 99.8727L99.1506 118.232H62.4336V132.2H99.1471L67.3517 150.558L74.3353 162.657L106.131 144.302L87.7722 176.098L99.8707 183.082L118.229 151.282V188H132.197V151.286L150.552 183.082L162.65 176.098L144.291 144.298L176.09 162.657L183.074 150.558L151.279 132.203H187.992V118.235H187.999ZM125.216 144.214C114.685 144.214 106.148 135.678 106.148 125.145C106.148 114.613 114.685 106.077 125.216 106.077C135.748 106.077 144.284 114.613 144.284 125.145C144.284 135.678 135.748 144.214 125.216 144.214Z" fill="white"/>
</svg>
