<svg width="250" height="250" viewBox="0 0 250 250" fill="none" xmlns="http://www.w3.org/2000/svg">
<rect width="250" height="250" fill="#4353FF"/>
<path d="M161.891 106.994C161.891 106.994 151.496 139.445 150.649 142.124C150.341 139.368 142.718 81.125 142.718 81.125C125.008 81.125 115.537 93.6768 110.532 106.917C110.532 106.917 97.9045 139.445 96.8266 142.2C96.7496 139.674 94.9016 107.3 94.9016 107.3C93.8236 91.0746 78.8857 81.2015 66.7969 81.2015L81.4267 169.447C99.9835 169.37 109.993 156.895 115.229 143.654C115.229 143.654 126.394 114.954 126.856 113.652C126.933 114.877 134.864 169.447 134.864 169.447C153.498 169.447 163.508 157.737 168.898 144.955L195.001 81.2015C176.598 81.2015 166.896 93.6768 161.891 106.994Z" fill="white"/>
</svg>
